# xmcd
#
# Track frame offsets: 
#        150
#        16006
#        30482
#        45902
#        62526
#        77850
#        92076
#        108226
#        125491
#        143297
#        161496
#        178404
#        194209
#
# Disc length: 2796 seconds
#
# Revision: 0
# Processed by: cddbd v1.5.2PL0 Copyright (c) Steve Scherf et al.
# Submitted via: ExactAudioCopy v1.0b3
#
DISCID=a00aea0d
DTITLE=Rodney Atkins - Take a Back Road
DYEAR=2011
DGENRE=Country
TTITLE0=Take a Back Road
TTITLE1=He's Mine
TTITLE2=Family
TTITLE3=The Corner
TTITLE4=She's a Girl Ain't She
TTITLE5=She'd Rather Fight
TTITLE6=Feet
TTITLE7=Cabin In the Woods
TTITLE8=Just Wanna Rock N' Roll
TTITLE9=Growing Up Like That
TTITLE10=Tips
TTITLE11=Lifelines
TTITLE12=Farmer's Daughter (Bonus Song)
EXTD=
EXTT0=
EXTT1=
EXTT2=
EXTT3=
EXTT4=
EXTT5=
EXTT6=
EXTT7=
EXTT8=
EXTT9=
EXTT10=
EXTT11=
EXTT12=
PLAYORDER=
